#!OML:ASF X:\für Bonn\!DataBase\2005_08_12_Daniel\c3d\Daniel.ASF
:FULLY-SPECIFIED
:DEGREES
3171
root -14.5383 17.2015 24.4582 -186.341 399.863 -179.254
lowerback 15.8321 -0.851188 4.74666
upperback 3.4982 -0.030982 0.00222994
thorax -5.15555 0.061286 -2.69331
lowerneck -2.48074 4.53944 -1.85235
upperneck 16.563 7.36638 -2.09259
head 5.41921 3.62129 0.0746527
rclavicle 2.76559e-014 -2.46493e-014
rhumerus -31.0433 -16.4047 -79.2935
rradius 17.7545
rwrist 25.0823
rhand -18.1305 18.1378
rfingers 7.12502
rthumb 8.14443 -11.6853
lclavicle 2.76559e-014 -2.46493e-014
lhumerus -34.2696 33.2623 72.8012
lradius 23.6669
lwrist -28.6351
lhand -8.85598 -6.79058
lfingers 7.12502
lthumb 17.0851 22.4782
rfemur 1.74455 10.3671 27.031
rtibia 31.1711
rfoot -27.2011 -0.892576
rtoes -8.28218
lfemur -25.6728 8.19891 -19.4186
ltibia 69.0512
lfoot -13.631 -1.20796
ltoes -12.9378
3172
root -14.4499 17.1971 24.3491 -186.341 399.848 -179.442
lowerback 15.8311 -0.760579 4.57887
upperback 3.42014 0.0532857 -0.0292244
thorax -5.23129 0.0980729 -2.64846
lowerneck -2.42611 4.64104 -1.80578
upperneck 16.5144 7.5151 -2.18268
head 5.40067 3.69351 0.0449366
rclavicle -4.93731e-014 2.64384e-014
rhumerus -30.9248 -15.7183 -79.4848
rradius 17.9502
rwrist 24.862
rhand -18.152 18.1643
rfingers 7.12502
rthumb 8.12365 -11.6595
lclavicle -4.93731e-014 2.64384e-014
lhumerus -34.6466 33.3439 72.3635
lradius 23.4573
lwrist -28.5441
lhand -9.13693 -6.69605
lfingers 7.12502
lthumb 16.8146 22.5959
rfemur 2.44619 10.5307 27.0216
rtibia 30.7398
rfoot -27.5288 -1.10894
rtoes -8.46429
lfemur -26.2814 8.08024 -19.8157
ltibia 67.3701
lfoot -14.1366 -1.18978
ltoes -13.5006
3173
root -14.3609 17.1952 24.2379 -186.235 399.831 -179.51
lowerback 15.8013 -0.669911 4.57491
upperback 3.34518 0.160128 -0.102425
thorax -5.28599 0.144148 -2.74523
lowerneck -2.41559 4.7244 -1.56757
upperneck 16.4746 7.63659 -2.35349
head 5.40229 3.75668 -0.0402451
rclavicle 6.6742e-014 -8.15017e-015
rhumerus -30.8184 -15.0539 -79.7726
rradius 18.2164
rwrist 24.5234
rhand -17.9911 18.1722
rfingers 7.12502
rthumb 8.27894 -11.6456
lclavicle 6.6742e-014 -8.15017e-015
lhumerus -34.9454 33.2539 71.9391
lradius 23.316
lwrist -28.3964
lhand -9.37566 -6.45135
lfingers 7.12502
lthumb 16.5848 22.86
rfemur 3.1816 10.6864 27.1277
rtibia 30.2018
rfoot -27.8406 -1.40416
rtoes -8.77917
lfemur -26.8397 7.92827 -20.1061
ltibia 65.597
lfoot -14.5523 -1.10499
ltoes -13.4919
3174
root -14.272 17.1945 24.1265 -186.173 399.827 -179.66
lowerback 15.7793 -0.561006 4.46066
upperback 3.27332 0.274725 -0.158195
thorax -5.34141 0.195828 -2.76256
lowerneck -2.42333 4.81027 -1.4109
upperneck 16.4204 7.75913 -2.48394
head 5.3985 3.81756 -0.0995555
rclavicle -2.31584e-014 1.21259e-014
rhumerus -30.6769 -14.4641 -79.9793
rradius 18.4173
rwrist 24.3264
rhand -17.9698 18.1296
rfingers 7.12502
rthumb 8.29945 -11.6874
lclavicle -2.31584e-014 1.21259e-014
lhumerus -35.2938 33.4954 71.4228
lradius 23.0852
lwrist -28.5931
lhand -9.64078 -6.35513
lfingers 7.12502
lthumb 16.3295 22.9774
rfemur 3.97774 10.8497 27.1552
rtibia 29.5366
rfoot -28.1465 -1.67204
rtoes -8.98873
lfemur -27.3352 7.74996 -20.4502
ltibia 63.7066
lfoot -14.8535 -0.978285
ltoes -13.1491
3175
root -14.1826 17.1969 24.0136 -186.051 399.782 -179.721
lowerback 15.7531 -0.476399 4.39922
upperback 3.21172 0.368147 -0.192864
thorax -5.38525 0.237587 -2.78316
lowerneck -2.45562 4.9104 -1.22675
upperneck 16.3415 7.90201 -2.65542
head 5.39442 3.88641 -0.174386
rclavicle -3.36443e-014 -1.53064e-014
rhumerus -30.5507 -13.8296 -80.2067
rradius 18.6719
rwrist 24.0373
rhand -18.0212 18.0987
rfingers 7.12502
rthumb 8.24985 -11.7203
lclavicle -3.36443e-014 -1.53064e-014
lhumerus -35.5443 33.4769 71.0436
lradius 22.9144
lwrist -28.524
lhand -9.83806 -6.13557
lfingers 7.12502
lthumb 16.1396 23.2124
rfemur 4.85528 11.0942 27.3023
rtibia 28.7329
rfoot -28.3738 -2.12083
rtoes -9.16829
lfemur -27.7977 7.50522 -20.7231
ltibia 61.7459
lfoot -15.098 -0.767443
ltoes -13.1158
3176
root -14.0918 17.2026 23.8979 -185.929 399.805 -179.748
lowerback 15.7531 -0.384672 4.37557
upperback 3.14144 0.47857 -0.22553
thorax -5.45102 0.286362 -2.82687
lowerneck -2.38628 5.02178 -1.10386
upperneck 16.1981 8.04912 -2.76922
head 5.34886 3.96009 -0.225969
rclavicle 6.69407e-014 -5.1684e-015
rhumerus -30.4537 -13.5796 -80.2812
rradius 18.8708
rwrist 24.183
rhand -17.9488 18.1531
rfingers 7.12502
rthumb 8.31978 -11.663
lclavicle 6.69407e-014 -5.1684e-015
lhumerus -35.8956 33.4659 70.6412
lradius 22.801
lwrist -28.5279
lhand -10.1417 -5.93993
lfingers 7.12502
lthumb 15.8472 23.4315
rfemur 5.82374 11.2796 27.455
rtibia 27.8076
rfoot -28.4835 -2.47054
rtoes -9.60263
lfemur -28.1789 7.35153 -20.944
ltibia 59.6927
lfoot -15.2385 -0.462115
ltoes -13.4533
3177
root -14.0012 17.2086 23.7827 -185.738 399.786 -179.727
lowerback 15.7261 -0.287358 4.41189
upperback 3.06635 0.603166 -0.276435
thorax -5.50517 0.340903 -2.92658
lowerneck -2.43466 5.10967 -0.909278
upperneck 16.1411 8.16526 -2.87617
head 5.35249 4.01963 -0.283007
rclavicle -1.19768e-014 -5.76476e-015
rhumerus -30.3698 -13.3887 -80.3911
rradius 19.0765
rwrist 24.3556
rhand -17.9657 18.1474
rfingers 7.12502
rthumb 8.30341 -11.6694
lclavicle -1.19768e-014 -5.76476e-015
lhumerus -36.2195 33.5856 70.1511
lradius 22.6428
lwrist -28.7899
lhand -10.3288 -5.80563
lfingers 7.12502
lthumb 15.667 23.58
rfemur 6.82433 11.4748 27.6543
rtibia 26.7488
rfoot -28.483 -2.83568
rtoes -9.69294
lfemur -28.5827 7.0293 -21.0971
ltibia 57.5941
lfoot -15.2327 -0.109081
ltoes -13.9034
3178
root -13.9111 17.2153 23.6653 -185.515 399.754 -179.66
lowerback 15.6956 -0.217197 4.45511
upperback 2.98677 0.695674 -0.285044
thorax -5.56495 0.379581 -2.97886
lowerneck -2.39212 5.22873 -0.738115
upperneck 15.9984 8.32689 -3.04006
head 5.31673 4.09925 -0.355808
rclavicle -8.54029e-014 1.70955e-014
rhumerus -30.2717 -13.0035 -80.5264
rradius 19.3022
rwrist 24.3049
rhand -17.9507 18.0828
rfingers 7.12502
rthumb 8.31789 -11.7334
lclavicle -8.54029e-014 1.70955e-014
lhumerus -36.6473 33.7837 69.6304
lradius 22.5275
lwrist -29.0621
lhand -10.4747 -5.74377
lfingers 7.12502
lthumb 15.5264 23.6529
rfemur 7.85901 11.6969 27.8994
rtibia 25.6071
rfoot -28.4194 -3.29971
rtoes -9.96134
lfemur -28.9505 6.71076 -21.1916
ltibia 55.457
lfoot -15.0504 0.159956
ltoes -14.1036
3179
root -13.8211 17.2217 23.5464 -185.273 399.748 -179.575
lowerback 15.627 -0.127087 4.53954
upperback 2.92856 0.818744 -0.312635
thorax -5.57755 0.434368 -3.07992
lowerneck -2.3224 5.33105 -0.549465
upperneck 15.8124 8.46292 -3.22559
head 5.26468 4.16673 -0.441122
rclavicle -3.37685e-014 -1.07344e-014
rhumerus -30.1853 -12.8414 -80.5998
rradius 19.5008
rwrist 24.4389
rhand -18.0245 18.0762
rfingers 7.12502
rthumb 8.24668 -11.7429
lclavicle -3.37685e-014 -1.07344e-014
lhumerus -36.9776 33.7995 69.2483
lradius 22.4616
lwrist -29.1591
lhand -10.6199 -5.67223
lfingers 7.12502
lthumb 15.3867 23.7352
rfemur 8.90662 11.8011 28.1166
rtibia 24.4004
rfoot -28.3222 -3.65379
rtoes -10.2038
lfemur -29.2621 6.31871 -21.2444
ltibia 53.2854
lfoot -14.8766 0.515508
ltoes -14.4875
3180
root -13.7296 17.2239 23.4265 -185.045 399.714 -179.487
lowerback 15.5939 -0.0490803 4.63533
upperback 2.8455 0.927739 -0.356228
thorax -5.63621 0.479648 -3.2025
lowerneck -2.18482 5.44193 -0.40101
upperneck 15.6044 8.59666 -3.31689
head 5.18901 4.23827 -0.494188
rclavicle -7.93648e-014 0
rhumerus -30.2107 -12.3841 -80.7748
rradius 19.8143
rwrist 24.2005
rhand -18.0426 18.0658
rfingers 7.12502
rthumb 8.22919 -11.7539
lclavicle -7.93648e-014 0
lhumerus -37.3594 33.8529 68.7854
lradius 22.3909
lwrist -29.2869
lhand -10.7113 -5.60992
lfingers 7.12502
lthumb 15.2986 23.8043
rfemur 10.0387 11.9992 28.3826
rtibia 23.1038
rfoot -28.1921 -4.08201
rtoes -10.3532
lfemur -29.5521 5.97083 -21.3064
ltibia 51.1195
lfoot -14.7102 0.878864
ltoes -15.152
3181
root -13.6373 17.2299 23.3039 -184.737 399.729 -179.387
lowerback 15.4302 0.0383389 4.69766
upperback 2.77692 1.03849 -0.354405
thorax -5.60889 0.528823 -3.25504
lowerneck -1.98178 5.57483 -0.365818
upperneck 15.3277 8.76248 -3.40782
head 5.07754 4.3217 -0.531263
rclavicle -1.39398e-014 -3.02153e-014
rhumerus -30.1993 -11.8223 -80.9399
rradius 20.1245
rwrist 23.9089
rhand -18.1705 17.9757
rfingers 7.12502
rthumb 8.10577 -11.8489
lclavicle -1.39398e-014 -3.02153e-014
lhumerus -37.7902 34.089 68.2803
lradius 22.3104
lwrist -29.6253
lhand -10.7327 -5.64907
lfingers 7.12502
lthumb 15.278 23.7667
rfemur 11.1181 12.1457 28.5945
rtibia 21.7205
rfoot -28.0404 -4.41375
rtoes -10.7091
lfemur -29.9124 5.61627 -21.3411
ltibia 48.9506
lfoot -14.5368 1.32325
ltoes -15.8116
3182
root -13.5455 17.234 23.1812 -184.366 399.69 -179.185
lowerback 15.2944 0.110082 4.87544
upperback 2.70078 1.14776 -0.372759
thorax -5.60188 0.57451 -3.3946
lowerneck -1.86051 5.69016 -0.220988
upperneck 15.1121 8.90749 -3.53482
head 5.00492 4.39629 -0.59385
rclavicle -1.84373e-014 2.06736e-014
rhumerus -30.2228 -11.2041 -81.1765
rradius 20.447
rwrist 23.4299
rhand -18.351 17.9059
rfingers 7.12502
rthumb 7.93159 -11.9253
lclavicle -1.84373e-014 2.06736e-014
lhumerus -38.1694 34.3663 67.7062
lradius 22.1797
lwrist -29.9811
lhand -10.7469 -5.70327
lfingers 7.12502
lthumb 15.2643 23.7135
rfemur 12.2543 12.2738 28.9082
rtibia 20.2296
rfoot -27.7874 -4.78858
rtoes -10.8633
lfemur -30.3224 5.25106 -21.2739
ltibia 46.8561
lfoot -14.2969 1.83757
ltoes -16.1723
